<?xml version="1.0" encoding="utf-8"?>
<!-- Generator: Adobe Illustrator 23.0.4, SVG Export Plug-In . SVG Version: 6.00 Build 0)  -->
<svg version="1.1" id="Layer_1" xmlns="http://www.w3.org/2000/svg" xmlns:xlink="http://www.w3.org/1999/xlink" x="0px" y="0px"
	 viewBox="0 0 32 32" style="enable-background:new 0 0 32 32;" xml:space="preserve">
<style type="text/css">
	.st0{fill:#008AD0;}
	.st1{fill:#333333;}
</style>
<g>
	<path class="st1" d="M24,26H9c-4.411,0-8-3.589-8-8c0-2.434,1.113-4.729,3.003-6.243C4.132,6.355,8.567,2,14,2
		c3.619,0,6.874,1.903,8.658,5.012C22.774,7.004,22.889,7,23,7c3.309,0,6,2.691,6,6c0,0.327-0.031,0.655-0.098,1.004
		C30.242,15.317,31,17.105,31,19C31,22.86,27.859,26,24,26z M14,4c-4.411,0-8,3.589-8,8l0.013,0.227
		c0.008,0.336-0.153,0.653-0.43,0.845C3.966,14.196,3,16.038,3,18c0,3.309,2.691,6,6,6h15c2.757,0,5-2.243,5-5
		c0-1.506-0.671-2.918-1.841-3.874c-0.309-0.252-0.438-0.663-0.33-1.046C26.946,13.668,27,13.325,27,13c0-2.206-1.794-4-4-4
		c-0.216,0-0.445,0.023-0.722,0.074c-0.445,0.085-0.886-0.143-1.081-0.548C19.847,5.734,17.089,4,14,4z"/>
</g>
<g>
	<path class="st0" d="M9,22c-2.206,0-4-1.794-4-4c0-0.552,0.447-1,1-1s1,0.448,1,1c0,1.103,0.897,2,2,2c0.553,0,1,0.448,1,1
		S9.553,22,9,22z"/>
</g>
<g>
	<path class="st1" d="M2,19c-0.553,0-1-0.448-1-1c0-4.411,3.589-8,8-8c0.553,0,1,0.448,1,1s-0.447,1-1,1c-3.309,0-6,2.691-6,6
		C3,18.552,2.553,19,2,19z"/>
</g>
<g>
	<path class="st1" d="M23,13c-0.553,0-1-0.448-1-1c0-4.411-3.589-8-8-8c-0.553,0-1-0.448-1-1s0.447-1,1-1c5.514,0,10,4.486,10,10
		C24,12.552,23.553,13,23,13z"/>
</g>
</svg>
