<svg xmlns="http://www.w3.org/2000/svg" viewBox="0 0 25 25"><defs><style>.cls-1{fill:#231f20;}</style></defs><g id="glasses"><path class="cls-1" d="M24,12.45a.3.3,0,0,0,0-.1l0-.09s0,0,0,0l-3.57-5A3.81,3.81,0,0,0,16,5.81L15.34,6a.5.5,0,1,0,.32.94l.66-.22a2.84,2.84,0,0,1,3.21,1l3,4.2h-8a.5.5,0,0,0-.5.5V14H11V12.5a.5.5,0,0,0-.5-.5h-8l3-4.2a2.84,2.84,0,0,1,3.21-1L9.34,7A.5.5,0,1,0,9.66,6L9,5.81a3.81,3.81,0,0,0-4.34,1.4l-3.57,5s0,0,0,0l0,.09a.3.3,0,0,0,0,.1s0,0,0,.05v3A3.48,3.48,0,0,0,4.47,19H7.53A3.48,3.48,0,0,0,11,15.53V15h3v.53A3.48,3.48,0,0,0,17.47,19h3.06A3.48,3.48,0,0,0,24,15.53v-3S24,12.47,24,12.45ZM10,15.53A2.48,2.48,0,0,1,7.53,18H4.47A2.48,2.48,0,0,1,2,15.53V13h8Zm13,0A2.48,2.48,0,0,1,20.53,18H17.47A2.48,2.48,0,0,1,15,15.53V13h8Z"/><path class="cls-1" d="M4.85,14.15a.48.48,0,0,0-.7,0l-1,1a.48.48,0,0,0,0,.7.48.48,0,0,0,.7,0l1-1A.48.48,0,0,0,4.85,14.15Z"/><path class="cls-1" d="M7.15,14.15l-2,2a.48.48,0,0,0,0,.7.48.48,0,0,0,.7,0l2-2a.49.49,0,0,0-.7-.7Z"/><path class="cls-1" d="M16.5,16a.47.47,0,0,0,.35-.15l1-1a.49.49,0,1,0-.7-.7l-1,1a.48.48,0,0,0,0,.7A.47.47,0,0,0,16.5,16Z"/><path class="cls-1" d="M18.15,16.85a.48.48,0,0,0,.7,0l2-2a.49.49,0,1,0-.7-.7l-2,2A.48.48,0,0,0,18.15,16.85Z"/></g></svg>